<svg width="28" height="24" viewBox="0 0 28 24" fill="none" xmlns="http://www.w3.org/2000/svg">
<g opacity="0.5">
<path d="M3.49998 3H24.5C24.8094 3 25.1061 3.10536 25.3249 3.29289C25.5437 3.48043 25.6666 3.73478 25.6666 4V20C25.6666 20.2652 25.5437 20.5196 25.3249 20.7071C25.1061 20.8946 24.8094 21 24.5 21H3.49998C3.19056 21 2.89381 20.8946 2.67502 20.7071C2.45623 20.5196 2.33331 20.2652 2.33331 20V4C2.33331 3.73478 2.45623 3.48043 2.67502 3.29289C2.89381 3.10536 3.19056 3 3.49998 3ZM23.3333 7.238L14.084 14.338L4.66665 7.216V19H23.3333V7.238ZM5.26281 5L14.0711 11.662L22.7523 5H5.26281Z" fill="white"/>
</g>
</svg>
